<svg width="16" height="16" viewBox="0 0 16 16" fill="none" xmlns="http://www.w3.org/2000/svg">
<path d="M8.35248 0.705078C7.3482 0.705085 6.35376 0.902901 5.42593 1.28723C4.4981 1.67156 3.65505 2.23487 2.94493 2.94501C2.2348 3.65515 1.6715 4.4982 1.28718 5.42604C0.90287 6.35387 0.70507 7.34832 0.705078 8.3526C0.705092 10.3808 1.5108 12.326 2.94497 13.7601C4.37913 15.1943 6.32427 16 8.35248 16C9.35676 16 10.3512 15.8022 11.279 15.4179C12.2069 15.0336 13.0499 14.4703 13.7601 13.7602C14.4702 13.05 15.0335 12.207 15.4178 11.2791C15.8022 10.3513 16 9.35688 16 8.3526C16 7.34831 15.8022 6.35385 15.4179 5.42601C15.0336 4.49817 14.4703 3.65511 13.7601 2.94497C13.05 2.23483 12.2069 1.67152 11.2791 1.2872C10.3512 0.902874 9.35677 0.70507 8.35248 0.705078ZM5.35615 4.22179H8.20927L12.3792 8.58377H12.3795L8.20949 12.9459H5.35637L9.52623 8.58389L5.35615 4.22179Z" fill="#F9F9F9"/>
</svg>
