<svg width="16" height="16" viewBox="0 0 16 16" fill="none" xmlns="http://www.w3.org/2000/svg">
<path d="M7.64752 0.705078C8.6518 0.705085 9.64624 0.902901 10.5741 1.28723C11.5019 1.67156 12.3449 2.23487 13.0551 2.94501C13.7652 3.65515 14.3285 4.4982 14.7128 5.42604C15.0971 6.35387 15.2949 7.34832 15.2949 8.3526C15.2949 10.3808 14.4892 12.326 13.055 13.7601C11.6209 15.1943 9.67573 16 7.64752 16C6.64324 16 5.64879 15.8022 4.72096 15.4179C3.79312 15.0336 2.95007 14.4703 2.23993 13.7602C1.52979 13.05 0.966478 12.207 0.58215 11.2791C0.197823 10.3513 7.28527e-06 9.35688 2.94201e-07 8.3526C-7.65546e-06 7.34831 0.197797 6.35385 0.582118 5.42601C0.966438 4.49817 1.52975 3.65511 2.23989 2.94497C2.95003 2.23483 3.79309 1.67152 4.72093 1.2872C5.64877 0.902874 6.64323 0.70507 7.64752 0.705078ZM10.6438 4.22179H7.79073L3.62076 8.58377H3.62054L7.79051 12.9459H10.6436L6.47377 8.58389L10.6438 4.22179Z" fill="#F9F9F9"/>
</svg>
